<svg width="10" height="10" viewBox="0 0 10 10" fill="none" xmlns="http://www.w3.org/2000/svg">
<path d="M9.55186 2.32251C9.55619 2.13263 9.48549 1.9413 9.35529 1.79059C9.22509 1.63988 9.04606 1.54213 8.85756 1.51884L3.17057 0.816985C3.07623 0.803685 2.98207 0.809411 2.8936 0.83383C2.80512 0.858248 2.72409 0.90087 2.65523 0.959207C2.58638 1.01754 2.53108 1.09043 2.49257 1.17361C2.45405 1.25679 2.43309 1.3486 2.43091 1.44368C2.42872 1.53876 2.44536 1.63521 2.47984 1.7274C2.51433 1.81959 2.56597 1.90568 2.63176 1.98063C2.69755 2.05558 2.77617 2.11791 2.86303 2.16397C2.94989 2.21002 3.04325 2.23889 3.13766 2.24889L7.10861 2.73896L0.2979 8.62278C0.161503 8.74061 0.0824233 8.9135 0.0780589 9.10341C0.0736945 9.29332 0.144403 9.4847 0.274628 9.63544C0.404853 9.78618 0.583928 9.88394 0.772459 9.9072C0.960989 9.93047 1.14353 9.87734 1.27993 9.75951L8.09064 3.87569L7.99871 7.87571C7.99764 8.06383 8.06983 8.25218 8.19974 8.4002C8.32966 8.54821 8.5069 8.64403 8.69329 8.66704C8.87968 8.69004 9.06031 8.63838 9.19627 8.52318C9.33224 8.40798 9.41265 8.23847 9.42021 8.05114L9.55186 2.32251Z" fill="white"/>
</svg>
