<svg width="18" height="15" viewBox="0 0 18 15" fill="none" xmlns="http://www.w3.org/2000/svg">
<path d="M17.7015 8.31037C17.8926 8.0991 18 7.81259 18 7.51384C18 7.2151 17.8926 6.92859 17.7015 6.71731L11.9346 0.343948C11.8405 0.236343 11.728 0.150514 11.6037 0.0914678C11.4793 0.0324221 11.3455 0.00134247 11.2101 4.25376e-05C11.0748 -0.00125739 10.9406 0.0272487 10.8153 0.0838968C10.69 0.140545 10.5762 0.224201 10.4804 0.329984C10.3847 0.435766 10.309 0.561557 10.2578 0.700016C10.2065 0.838475 10.1807 0.98683 10.1819 1.13642C10.1831 1.28602 10.2112 1.43385 10.2646 1.57131C10.318 1.70876 10.3957 1.83308 10.4931 1.93701L14.5199 6.38721L1.01944 6.38721C0.749067 6.38721 0.489768 6.50591 0.298587 6.71719C0.107405 6.92848 9.29132e-07 7.21504 9.29132e-07 7.51384C9.29132e-07 7.81265 0.107405 8.09921 0.298587 8.31049C0.489768 8.52178 0.749067 8.64048 1.01944 8.64048L14.5199 8.64048L10.4931 13.0907C10.3074 13.3032 10.2046 13.5878 10.2069 13.8832C10.2093 14.1786 10.3165 14.4611 10.5055 14.67C10.6945 14.8789 10.9502 14.9974 11.2175 15C11.4848 15.0025 11.7423 14.889 11.9346 14.6837L17.7015 8.31037Z" fill="white"/>
</svg>
