<svg width="20" height="20" viewBox="0 0 20 20" fill="none" xmlns="http://www.w3.org/2000/svg">
<path fill-rule="evenodd" clip-rule="evenodd" d="M8.27746 0.00500011C8.36046 1.14553e-07 8.44846 0 8.56246 0H11.4415C11.5545 0 11.6425 1.14553e-07 11.7265 0.00500011C12.246 0.0365848 12.746 0.214982 13.1682 0.519456C13.5904 0.82393 13.9175 1.24197 14.1115 1.725C14.1425 1.802 14.1715 1.885 14.2065 1.993L14.2095 2.003C14.2935 2.227 14.4845 2.482 14.7525 2.686C14.7825 2.70867 14.8125 2.73 14.8425 2.75C16.9955 2.753 18.1205 2.792 18.8945 3.423C19.0545 3.553 19.1991 3.69767 19.3285 3.857C20.0015 4.684 20.0015 5.909 20.0015 8.359C20.0015 8.981 20.0015 9.291 19.8515 9.534C19.8219 9.58138 19.7885 9.6262 19.7515 9.668C19.5615 9.882 19.2645 9.971 18.6695 10.15L14.0015 11.55V10.75C14.0015 10.2196 13.7908 9.71086 13.4157 9.33579C13.0406 8.96071 12.5319 8.75 12.0015 8.75H8.00146C7.47103 8.75 6.96232 8.96071 6.58725 9.33579C6.21218 9.71086 6.00146 10.2196 6.00146 10.75V11.55L1.33346 10.15C0.738465 9.971 0.440465 9.882 0.251465 9.668C0.214449 9.6262 0.180999 9.58138 0.151465 9.534C0.00146493 9.291 0.00146484 8.981 0.00146484 8.359C0.00146484 5.909 0.00146496 4.684 0.674465 3.857C0.804465 3.697 0.949132 3.55233 1.10846 3.423C1.88346 2.793 3.00746 2.753 5.16146 2.75C5.19146 2.73 5.22146 2.70867 5.25146 2.686C5.51846 2.482 5.71046 2.226 5.79346 2.003C5.83146 1.889 5.85946 1.803 5.89146 1.724C6.08562 1.24116 6.41279 0.823326 6.83497 0.519037C7.25715 0.214748 7.75701 0.0364997 8.27646 0.00500011M12.8195 2.568C12.8428 2.63 12.8695 2.69067 12.8995 2.75H7.10246C7.13113 2.69 7.1578 2.62933 7.18246 2.568V2.565L7.18746 2.555L7.19246 2.543L7.19746 2.531L7.20047 2.521L7.20247 2.516L7.20646 2.504L7.21046 2.492L7.21247 2.486L7.21546 2.478L7.21746 2.471L7.21947 2.465C7.25847 2.349 7.27046 2.312 7.28246 2.284C7.37061 2.06442 7.51927 1.87437 7.71116 1.73594C7.90305 1.59751 8.13029 1.51639 8.36646 1.502C8.39846 1.5 8.43846 1.5 8.58146 1.5H11.4195C11.5625 1.5 11.6025 1.5 11.6345 1.502C12.1165 1.532 12.5385 1.836 12.7195 2.284C12.7295 2.312 12.7425 2.347 12.7815 2.465L12.7835 2.471L12.7855 2.478L12.7885 2.486L12.7905 2.492L12.7945 2.504L12.7985 2.516L12.8005 2.521L12.8045 2.531L12.8085 2.543L12.8135 2.555L12.8175 2.565L12.8195 2.568ZM12.0015 10.25H8.00146C7.86886 10.25 7.74168 10.3027 7.64791 10.3964C7.55414 10.4902 7.50146 10.6174 7.50146 10.75V12.912C7.50149 13.0119 7.53141 13.1094 7.58737 13.1921C7.64334 13.2748 7.72278 13.3389 7.81546 13.376L8.51546 13.656C9.46937 14.0377 10.5336 14.0377 11.4875 13.656L12.1875 13.376C12.2802 13.3389 12.3596 13.2748 12.4156 13.1921C12.4715 13.1094 12.5014 13.0119 12.5015 12.912V10.75C12.5015 10.6174 12.4488 10.4902 12.355 10.3964C12.2613 10.3027 12.1341 10.25 12.0015 10.25ZM6.01147 13.12L1.00746 11.618C1.03746 14.732 1.21946 17.601 2.31946 18.578C3.63746 19.75 5.75946 19.75 10.0015 19.75C14.2435 19.75 16.3655 19.75 17.6835 18.578C18.7835 17.601 18.9655 14.732 18.9955 11.618L13.9905 13.119C13.9528 13.4814 13.8168 13.8267 13.5972 14.1175C13.3776 14.4083 13.0828 14.6336 12.7445 14.769L12.0445 15.049C10.733 15.5737 9.26993 15.5737 7.95846 15.049L7.25846 14.769C6.92017 14.6336 6.6253 14.4083 6.4057 14.1175C6.18611 13.8267 6.05013 13.4814 6.01246 13.119" fill="black"/>
</svg>
