<svg width="23" height="21" viewBox="0 0 23 21" fill="none" xmlns="http://www.w3.org/2000/svg">
<path d="M7.5 0.646485C5.64348 0.646485 3.86301 1.38398 2.55025 2.69674C1.2375 4.00949 0.5 5.78997 0.5 7.64648C0.5 9.503 1.2375 11.2835 2.55025 12.5962C3.86301 13.909 5.64348 14.6465 7.5 14.6465H8.57C8.47427 13.9833 8.47427 13.3097 8.57 12.6465H7.5C6.17392 12.6465 4.90215 12.1197 3.96447 11.182C3.02678 10.2443 2.5 8.97257 2.5 7.64648C2.5 6.3204 3.02678 5.04863 3.96447 4.11095C4.90215 3.17327 6.17392 2.64648 7.5 2.64648H15.5C16.2415 2.64633 16.9738 2.81111 17.6438 3.12889C18.3137 3.44667 18.9046 3.90948 19.3737 4.48381C19.8427 5.05814 20.1781 5.7296 20.3556 6.44956C20.5332 7.16952 20.5483 7.91995 20.4 8.64648C20.9895 9.22389 21.4723 9.90098 21.826 10.6465C22.3322 9.57942 22.5601 8.40163 22.4886 7.22277C22.4171 6.04391 22.0485 4.9023 21.4171 3.90422C20.7858 2.90613 19.9121 2.08402 18.8775 1.51442C17.8429 0.944818 16.681 0.646241 15.5 0.646485H7.5ZM15.5 10.6465C14.7044 10.6465 13.9413 10.9626 13.3787 11.5252C12.8161 12.0878 12.5 12.8508 12.5 13.6465C12.5 14.4421 12.8161 15.2052 13.3787 15.7678C13.9413 16.3304 14.7044 16.6465 15.5 16.6465C16.2956 16.6465 17.0587 16.3304 17.6213 15.7678C18.1839 15.2052 18.5 14.4421 18.5 13.6465C18.5 12.8508 18.1839 12.0878 17.6213 11.5252C17.0587 10.9626 16.2956 10.6465 15.5 10.6465ZM10.5 13.6465C10.5002 12.8669 10.6827 12.0982 11.0329 11.4016C11.3831 10.7051 11.8913 10.1002 12.5169 9.63506C13.1426 9.16994 13.8683 8.85757 14.6361 8.72288C15.404 8.58819 16.1927 8.63492 16.9393 8.85933C17.6859 9.08375 18.3697 9.47963 18.936 10.0154C19.5024 10.5511 19.9356 11.2119 20.2011 11.9448C20.4666 12.6778 20.557 13.4627 20.4652 14.2369C20.3733 15.011 20.1017 15.753 19.672 16.4035L22.207 18.9395L20.793 20.3535L18.257 17.8185C17.5034 18.3166 16.6288 18.6012 15.7264 18.6422C14.8239 18.6831 13.9272 18.4787 13.1316 18.0508C12.336 17.6229 11.6712 16.9874 11.2078 16.2119C10.7445 15.4364 10.4999 14.5499 10.5 13.6465Z" fill="#202020"/>
</svg>
