<svg width="20" height="20" viewBox="0 0 20 20" fill="none" xmlns="http://www.w3.org/2000/svg">
<path d="M19.7108 18.29L18.2908 19.71C18.1034 19.8963 17.85 20.0008 17.5858 20.0008C17.3216 20.0008 17.0682 19.8963 16.8808 19.71L5.00079 7.85C4.67563 7.94433 4.33932 7.99477 4.00079 8C3.3641 7.99955 2.73671 7.84711 2.17078 7.55536C1.60486 7.26362 1.11676 6.84099 0.747055 6.32263C0.377352 5.80426 0.136732 5.20513 0.0451992 4.57505C-0.0463335 3.94496 0.013866 3.30213 0.220793 2.7L2.76079 5.24L3.29079 4.71L4.71079 3.29L5.24079 2.76L2.70079 0.22C3.30293 0.0130733 3.94576 -0.0471263 4.57584 0.0444064C5.20592 0.135939 5.80505 0.376559 6.32342 0.746262C6.84179 1.11596 7.26441 1.60407 7.55616 2.16999C7.8479 2.73591 8.00034 3.3633 8.00079 4C7.99556 4.33853 7.94512 4.67484 7.85079 5L19.7108 16.88C19.897 17.0674 20.0016 17.3208 20.0016 17.585C20.0016 17.8492 19.897 18.1026 19.7108 18.29ZM0.290793 16.88C0.104542 17.0674 0 17.3208 0 17.585C0 17.8492 0.104542 18.1026 0.290793 18.29L1.71079 19.71C1.89816 19.8963 2.15161 20.0008 2.41579 20.0008C2.67998 20.0008 2.93343 19.8963 3.12079 19.71L8.59079 14.25L5.76079 11.42M18.0008 0L14.0008 2V4L11.8308 6.17L13.8308 8.17L16.0008 6H18.0008L20.0008 2L18.0008 0Z" fill="black"/>
</svg>
