<svg width="21" height="21" viewBox="0 0 21 21" fill="none" xmlns="http://www.w3.org/2000/svg">
<path d="M1.87382 19.2644L8.23782 12.9004M16.2518 10.0704L14.3468 15.7864C14.3163 15.8778 14.2642 15.9606 14.1949 16.0276C14.1256 16.0946 14.0412 16.1439 13.9488 16.1714L2.27082 19.6434C2.16561 19.6747 2.05385 19.6765 1.94769 19.6486C1.84154 19.6207 1.74505 19.5643 1.66875 19.4854C1.59244 19.4065 1.53923 19.3082 1.51492 19.2012C1.4906 19.0942 1.4961 18.9825 1.53082 18.8784L5.32282 7.50441C5.35 7.42275 5.39443 7.34788 5.45309 7.2849C5.51176 7.22193 5.58329 7.17231 5.66282 7.13941L11.0498 4.92141C11.1593 4.87618 11.2798 4.86439 11.396 4.88752C11.5122 4.91066 11.619 4.96769 11.7028 5.05141L16.1068 9.45641C16.1856 9.5352 16.2409 9.63437 16.2665 9.74282C16.2921 9.85126 16.2871 9.9647 16.2518 10.0704Z" stroke="#202020" stroke-width="1.5" stroke-linecap="round" stroke-linejoin="round"/>
<path d="M16.981 1.84417L19.345 4.20817C19.5227 4.37813 19.6646 4.58186 19.7624 4.80741C19.8603 5.03296 19.9121 5.27578 19.9148 5.52162C19.9175 5.76746 19.8711 6.01137 19.7783 6.23903C19.6854 6.46668 19.5481 6.6735 19.3742 6.84735C19.2004 7.0212 18.9936 7.15856 18.7659 7.25139C18.5382 7.34422 18.2943 7.39064 18.0485 7.38792C17.8027 7.3852 17.5598 7.3334 17.3343 7.23556C17.1087 7.13772 16.905 6.99582 16.735 6.81817L14.37 4.45417C14.0365 4.10552 13.8527 3.64011 13.858 3.15762C13.8634 2.67513 14.0574 2.21391 14.3986 1.87271C14.7398 1.53152 15.201 1.33748 15.6835 1.33214C16.166 1.32681 16.6324 1.5106 16.981 1.84417Z" fill="#202020" stroke="#202020" stroke-width="1.5" stroke-linecap="round" stroke-linejoin="round"/>
<path d="M10.3587 10.7782C10.2203 10.635 10.0548 10.5207 9.87182 10.4421C9.68882 10.3635 9.49199 10.3221 9.29282 10.3204C9.09365 10.3186 8.89613 10.3566 8.71179 10.432C8.52744 10.5074 8.35996 10.6188 8.21913 10.7597C8.07829 10.9005 7.96691 11.068 7.89148 11.2523C7.81606 11.4367 7.77811 11.6342 7.77984 11.8333C7.78157 12.0325 7.82295 12.2293 7.90156 12.4124C7.98018 12.5954 8.09445 12.7609 8.23772 12.8992C8.52062 13.1725 8.89952 13.3237 9.29282 13.3203C9.68611 13.3168 10.0623 13.1591 10.3404 12.881C10.6186 12.6029 10.7763 12.2266 10.7797 11.8333C10.7831 11.4401 10.632 11.0611 10.3587 10.7782Z" stroke="#202020" stroke-width="1.5" stroke-linecap="round" stroke-linejoin="round"/>
</svg>
