<svg width="24" height="19" viewBox="0 0 24 19" fill="none" xmlns="http://www.w3.org/2000/svg">
<path d="M4.2375 0C3.24625 0 2.29561 0.406611 1.59469 1.13038C0.893771 1.85416 0.5 2.83581 0.5 3.85938V15.1406C0.5 16.1642 0.893771 17.1458 1.59469 17.8696C2.29561 18.5934 3.24625 19 4.2375 19H19.7625C20.2533 19 20.7393 18.9002 21.1928 18.7062C21.6462 18.5123 22.0583 18.228 22.4053 17.8696C22.7524 17.5112 23.0277 17.0858 23.2155 16.6175C23.4033 16.1493 23.5 15.6474 23.5 15.1406V3.85938C23.5 3.35255 23.4033 2.8507 23.2155 2.38246C23.0277 1.91422 22.7524 1.48876 22.4053 1.13038C22.0583 0.772009 21.6462 0.487729 21.1928 0.293778C20.7393 0.0998259 20.2533 0 19.7625 0H4.2375ZM2.225 3.85938C2.225 2.71225 3.1266 1.78125 4.2375 1.78125H19.7625C20.8734 1.78125 21.775 2.71225 21.775 3.85938V15.1406C21.775 15.6918 21.563 16.2204 21.1856 16.6101C20.8081 16.9998 20.2962 17.2188 19.7625 17.2188H4.2375C3.70375 17.2188 3.19186 16.9998 2.81445 16.6101C2.43703 16.2204 2.225 15.6918 2.225 15.1406V3.85938ZM3.95 4.45312C3.95 4.21692 4.04087 3.99038 4.20262 3.82336C4.36437 3.65633 4.58375 3.5625 4.8125 3.5625H11.1375C11.3662 3.5625 11.5856 3.65633 11.7474 3.82336C11.9091 3.99038 12 4.21692 12 4.45312C12 4.68933 11.9091 4.91587 11.7474 5.08289C11.5856 5.24992 11.3662 5.34375 11.1375 5.34375H4.8125C4.58375 5.34375 4.36437 5.24992 4.20262 5.08289C4.04087 4.91587 3.95 4.68933 3.95 4.45312ZM5.1 10.6875C4.795 10.6875 4.50249 10.8126 4.28683 11.0353C4.07116 11.258 3.95 11.5601 3.95 11.875V14.25C3.95 14.5649 4.07116 14.867 4.28683 15.0897C4.50249 15.3124 4.795 15.4375 5.1 15.4375H13.15C13.455 15.4375 13.7475 15.3124 13.9632 15.0897C14.1788 14.867 14.3 14.5649 14.3 14.25V11.875C14.3 11.5601 14.1788 11.258 13.9632 11.0353C13.7475 10.8126 13.455 10.6875 13.15 10.6875H5.1ZM3.95 7.42188C3.95 7.18567 4.04087 6.95913 4.20262 6.79211C4.36437 6.62508 4.58375 6.53125 4.8125 6.53125H16.8875C17.1162 6.53125 17.3356 6.62508 17.4974 6.79211C17.6591 6.95913 17.75 7.18567 17.75 7.42188C17.75 7.65808 17.6591 7.88462 17.4974 8.05164C17.3356 8.21867 17.1162 8.3125 16.8875 8.3125H4.8125C4.58375 8.3125 4.36437 8.21867 4.20262 8.05164C4.04087 7.88462 3.95 7.65808 3.95 7.42188Z" fill="#202020"/>
</svg>
