<svg width="48" height="50" viewBox="0 0 48 50" fill="none" xmlns="http://www.w3.org/2000/svg">
<path d="M17.3291 49.6156C21.6199 49.6156 25.0815 45.9233 25.0815 41.3464V33.0771H17.3291C13.0382 33.0771 9.57666 36.7695 9.57666 41.3464C9.57666 45.9233 13.0382 49.6156 17.3291 49.6156Z" fill="#0ACF83"/>
<path d="M9.57666 24.8078C9.57666 20.2309 13.0382 16.5386 17.3291 16.5386H25.0815V33.077H17.3291C13.0382 33.077 9.57666 29.3847 9.57666 24.8078Z" fill="#A259FF"/>
<path d="M9.57666 8.26923C9.57666 3.69231 13.0382 0 17.3291 0H25.0815V16.5385H17.3291C13.0382 16.5385 9.57666 12.8462 9.57666 8.26923Z" fill="#F24E1E"/>
<path d="M25.0815 0H32.8339C37.1248 0 40.5864 3.69231 40.5864 8.26923C40.5864 12.8462 37.1248 16.5385 32.8339 16.5385H25.0815V0Z" fill="#FF7262"/>
<path d="M40.5864 24.8078C40.5864 29.3847 37.1248 33.077 32.8339 33.077C28.5431 33.077 25.0815 29.3847 25.0815 24.8078C25.0815 20.2309 28.5431 16.5386 32.8339 16.5386C37.1248 16.5386 40.5864 20.2309 40.5864 24.8078Z" fill="#1ABCFE"/>
</svg>
