<svg width="50" height="50" viewBox="0 0 50 50" fill="none" xmlns="http://www.w3.org/2000/svg">
<g clip-path="url(#clip0_277_176)">
<path d="M8.66667 0C6.50073 0 4.42351 0.877974 2.89196 2.44078C1.36041 4.00358 0.5 6.1232 0.5 8.33333V41.6667C0.5 43.8768 1.36041 45.9964 2.89196 47.5592C4.42351 49.122 6.50073 50 8.66667 50H41.3333C43.4993 50 45.5765 49.122 47.108 47.5592C48.6396 45.9964 49.5 43.8768 49.5 41.6667V8.33333C49.5 6.1232 48.6396 4.00358 47.108 2.44078C45.5765 0.877974 43.4993 0 41.3333 0H8.66667ZM28.6314 36.2639C30.5914 37.875 32.5478 38.6694 34.5006 38.6472C35.6983 38.6472 36.6166 38.4231 37.2554 37.975C37.5529 37.778 37.7949 37.5053 37.9577 37.1838C38.1204 36.8624 38.1983 36.5032 38.1837 36.1417C38.1879 35.7473 38.1071 35.3569 37.9472 34.9978C37.7873 34.6388 37.5521 34.32 37.2582 34.0639C36.6194 33.4954 35.4107 32.925 33.6322 32.3528C31.4961 31.7231 29.8492 30.9083 28.6913 29.9083C27.5553 28.9083 26.9763 27.513 26.9546 25.7222C26.9546 24.0315 27.6732 22.6157 29.1106 21.475C30.508 20.3343 32.2956 19.7639 34.4733 19.7639C37.5077 19.7639 39.9423 20.5176 41.7771 22.025L39.6809 25.3556C38.9262 24.7568 38.0603 24.3202 37.1357 24.0722C36.3047 23.7881 35.4366 23.6336 34.5604 23.6139C33.526 23.6139 32.6975 23.8074 32.0751 24.1944C31.458 24.5833 31.1495 25.0926 31.1495 25.7222C31.1495 26.4148 31.5279 27.0056 32.2847 27.4944C33.0469 27.9648 34.3445 28.4843 36.1774 29.0528C38.3933 29.725 39.9704 30.6213 40.9087 31.7417C41.8469 32.862 42.3161 34.288 42.3161 36.0194C42.3161 37.7917 41.6473 39.3194 40.3098 40.6028C38.9922 41.8657 37.0758 42.5278 34.5604 42.5889C31.2666 42.5889 28.5117 41.5806 26.2958 39.5639L28.6314 36.2639ZM13.5776 38.0361C14.2164 38.4435 14.9849 38.6472 15.8833 38.6472C16.8215 38.6472 17.6001 38.3722 18.2189 37.8222C18.836 37.2519 19.1454 36.2639 19.1472 34.8583V20.1306H23.1897V35.6528C23.1298 38.0565 22.4511 39.788 21.1535 40.8472C20.4435 41.4597 19.618 41.9173 18.728 42.1917C17.9027 42.4481 17.0454 42.5819 16.1827 42.5889C14.6855 42.5889 13.358 42.3241 12.2001 41.7944C10.9624 41.2259 9.92433 40.2176 9.08589 38.7694L11.9007 36.4167C12.4179 37.1296 12.9769 37.6694 13.5776 38.0361Z" fill="#F0DC55"/>
</g>
<defs>
<clipPath id="clip0_277_176">
<rect width="50" height="50" fill="white"/>
</clipPath>
</defs>
</svg>
