<svg width="51" height="50" viewBox="0 0 51 50" fill="none" xmlns="http://www.w3.org/2000/svg">
<g clip-path="url(#clip0_277_312)">
<path d="M30.2854 0.0976562L35.3866 0.13125C35.4827 0.205859 35.5604 0.254688 35.6428 0.291406C36.5674 0.709375 37.5698 1.00859 38.403 1.56406C40.8186 3.16953 43.1776 4.86133 45.535 6.55234C46.6307 7.33633 47.7108 8.15273 48.7209 9.04062C49.4717 9.7 49.8088 10.6355 49.8108 11.6332L49.8088 43.0281C49.8077 43.466 49.7327 43.9164 49.6108 44.3375C49.0569 46.257 47.8284 47.5707 45.8952 48.0836C44.8756 48.3535 43.7987 48.4375 42.7413 48.5246C41.0916 48.6617 39.4362 48.7289 37.7834 48.8281L34.6569 49.0234L29.6506 49.318L26.5729 49.5102L21.5178 49.8031L18.9053 49.9102C18.8213 49.9145 18.7436 50.032 18.6643 50.0977C16.676 50.0977 14.6893 50.0977 12.6842 50.0656C12.5881 49.9895 12.5151 49.9281 12.4295 49.9039C11.2178 49.5527 10.2018 48.8832 9.42055 47.9109C8.33852 46.5668 7.3104 45.1812 6.26977 43.8051C4.99087 42.1141 3.67876 40.448 2.47016 38.7086C1.75978 37.6922 1.37929 36.4818 1.38032 35.2418C1.37691 25.9695 1.37808 16.6973 1.38383 7.425C1.38383 7.15781 1.43071 6.88789 1.4768 6.62227C1.96196 3.76758 4.07524 2.24453 6.58852 1.96211C7.89321 1.81562 9.20688 1.75 10.5178 1.66328L13.9827 1.46328L15.4721 1.36563L19.9643 0.978125L22.4545 0.782812L26.5791 0.489844L30.044 0.285156C30.1284 0.279297 30.2061 0.163281 30.2854 0.0976562ZM10.635 44.6031C10.8428 44.873 11.0745 45.1293 11.2561 45.4164C12.1366 46.7941 13.3987 47.2945 15.0022 47.1879L25.8651 46.541L38.0901 45.8023L44.1768 45.4102C45.9807 45.2652 46.8518 44.2902 46.887 42.4805V42.0898L46.9006 12.4559C46.9022 11.5633 46.594 10.9391 45.8799 10.4402L37.2768 4.37773C35.8928 3.3707 34.4237 2.90078 32.7221 3.03516L23.0877 3.74766L13.0139 4.49062L6.69087 4.98359C5.41352 5.10078 4.62172 5.88203 4.39282 7.13516C4.33716 7.45503 4.3101 7.77923 4.31196 8.10391L4.28579 33.9797C4.2768 35.675 4.79555 37.0852 5.8104 38.382L10.635 44.6031Z" fill="white"/>
<path d="M10.6123 44.577L5.81037 38.3817C4.79552 37.0848 4.27677 35.675 4.28576 33.9797L4.31193 8.10395C4.31193 7.78051 4.33615 7.45239 4.39279 7.1352C4.6217 5.88246 5.41349 5.10121 6.69084 4.98364L13.0139 4.49067L23.0881 3.7477L32.7221 3.0352C34.4237 2.90082 35.8928 3.37075 37.2768 4.37778C40.1135 6.44223 43.0033 8.43364 45.8799 10.4403C46.594 10.9391 46.9022 11.5633 46.9006 12.4559L46.8869 42.0914V42.4821C46.8518 44.2903 45.9807 45.2653 44.1768 45.4102C42.1506 45.5735 40.1197 45.6789 38.0901 45.8024L25.8651 46.5407L15.0022 47.1879C13.3987 47.2946 12.1365 46.7942 11.2561 45.4164C11.0744 45.1293 10.8428 44.8731 10.6123 44.577ZM13.1147 26.6114V39.6926L13.1178 42.1325C13.1389 43.2266 13.6748 43.7715 14.7686 43.834C15.0432 43.8493 15.3209 43.8399 15.5971 43.8231L24.7541 43.2832L42.2404 42.2836C43.3303 42.2227 43.8338 41.745 43.9358 40.6649C43.9557 40.4707 43.9494 40.2743 43.9494 40.0789L43.951 14.8926C43.951 14.7461 43.9557 14.5997 43.9467 14.4532C43.8811 13.4508 43.4506 13.0418 42.4545 13.095L33.4424 13.6141C29.2212 13.8597 25.0001 14.1068 20.7791 14.3555L14.4483 14.7356C13.6412 14.7872 13.2764 15.1352 13.1545 15.9243C13.1257 16.1335 13.1129 16.3447 13.1162 16.5559L13.1147 26.6114ZM35.4475 6.01489C34.683 5.60004 33.8529 5.46254 32.9983 5.50981C31.6846 5.58168 30.3709 5.68989 29.0569 5.78481L10.3268 7.14575C9.76076 7.18676 9.19162 7.22778 8.63302 7.32895C8.44552 7.36254 8.20881 7.55161 8.15099 7.7227C8.10803 7.84301 8.29748 8.08598 8.43615 8.21879C8.69279 8.46411 8.98849 8.66996 9.26818 8.89145C9.93185 9.41489 10.6381 9.89223 11.2471 10.4707C12.4022 11.5676 13.7463 11.8211 15.2861 11.7098L27.4092 10.9497L40.46 10.1668C40.5791 10.161 40.6983 10.1243 40.9604 10.0754C40.7209 9.8266 40.5819 9.63598 40.4006 9.50161C39.7612 9.0294 39.1157 8.56556 38.4643 8.1102C37.4634 7.405 36.4578 6.70654 35.4475 6.01489Z" fill="black"/>
<path d="M13.1143 26.5625L13.1159 16.5558C13.1159 16.3449 13.1221 16.1316 13.1542 15.9242C13.276 15.1351 13.6409 14.7875 14.4479 14.7355L20.7788 14.3554L33.442 13.614L42.4538 13.0949C43.4502 13.0418 43.8807 13.4519 43.9459 14.4531C43.9553 14.5996 43.9506 14.7461 43.9506 14.8925L43.9491 40.0789L43.9354 40.6648C43.8335 41.7449 43.3299 42.2226 42.2401 42.2836L24.7538 43.2832L15.5967 43.823L14.7686 43.834C13.6745 43.7715 13.1385 43.2265 13.1174 42.134L13.1143 39.6925V26.5625ZM30.9917 26.5882L25.9651 18.93C25.7897 18.6629 25.6174 18.5746 25.294 18.6097L23.1514 18.7543L19.21 19.0429C18.2413 19.1316 17.6553 20.0425 17.9237 20.9871L20.0112 21.1656V38.0769L18.5893 38.4781C17.9588 38.664 17.6889 39.1953 17.901 39.8742L22.7088 39.598L24.6026 39.4425C25.419 39.3082 25.8584 38.8078 25.9682 37.9914L23.3393 37.3918V24.6718L23.5346 24.9453L29.5768 34.3797C30.465 35.7574 31.3771 37.1196 32.3127 38.4656C32.9795 39.4226 33.9624 39.7156 35.067 39.4773C35.7584 39.3297 36.4221 39.0488 37.0995 38.8304C37.4522 38.716 37.5725 38.5054 37.571 38.1101L37.5592 20.7273C37.5592 19.7113 37.5592 19.7113 38.5643 19.5086C39.5807 19.3039 39.8354 18.898 39.6034 17.8117L33.5292 18.1808C32.8682 18.2281 32.3678 18.7804 32.2674 19.423C32.2182 19.7328 32.2823 19.9035 32.653 19.925L34.492 20.1281V31.9168C33.3272 30.1398 32.1604 28.3642 30.9917 26.5898V26.5882ZM35.4803 6.03161C36.4775 6.72019 37.4717 7.41291 38.4631 8.10973C39.1147 8.56522 39.7604 9.02919 40.3999 9.50153C40.5811 9.6359 40.7202 9.82653 40.9596 10.0754L40.4592 10.1668L27.4085 10.9496L15.2854 11.7097C13.7456 11.8211 12.4014 11.5675 11.2463 10.4707C10.6374 9.89255 9.93111 9.41481 9.26704 8.89137C8.98775 8.66989 8.69204 8.46403 8.4354 8.21833C8.29673 8.08551 8.10728 7.84333 8.15025 7.72223C8.20806 7.55153 8.44634 7.36247 8.63228 7.32887C9.19087 7.22809 9.76001 7.18669 10.326 7.14567L29.0565 5.78473L32.9979 5.50973C33.8522 5.46286 34.6823 5.59958 35.4803 6.03161Z" fill="white"/>
<path d="M31.0127 26.617L34.492 31.9166V20.1275L32.6533 19.9244C32.2822 19.9033 32.2181 19.7326 32.267 19.4229C32.3677 18.7803 32.8685 18.2279 33.5287 18.1807L39.6033 17.8115C39.8353 18.8975 39.5806 19.3037 38.5642 19.508C37.5588 19.7096 37.5588 19.7096 37.5588 20.7271L37.5709 38.11C37.5724 38.5053 37.4521 38.7158 37.0994 38.8303L35.067 39.4771C33.9623 39.7139 32.9795 39.4225 32.3131 38.4654C31.3778 37.1192 30.4657 35.757 29.5771 34.3795L23.5341 24.9447C23.4916 24.8775 23.4427 24.815 23.3388 24.6717V37.3916L25.9681 37.9912C25.8584 38.8076 25.4189 39.3076 24.6025 39.4424C23.9798 39.5443 23.3408 39.5596 22.7088 39.5979L17.9009 39.874C17.6888 39.1951 17.9588 38.6639 18.5892 38.4779L20.0111 38.0768V21.1654L17.9236 20.9869C17.6552 20.0424 18.2412 19.1314 19.2099 19.0428C20.5209 18.9205 21.8377 18.8459 23.1513 18.7545C23.8654 18.7057 24.5826 18.6873 25.2939 18.6096C25.6173 18.5744 25.79 18.6627 25.965 18.9299L31.0127 26.617Z" fill="black"/>
</g>
<defs>
<clipPath id="clip0_277_312">
<rect width="50" height="50" fill="white" transform="translate(0.5)"/>
</clipPath>
</defs>
</svg>
