<svg width="39" height="50" viewBox="0 0 39 50" fill="none" xmlns="http://www.w3.org/2000/svg">
<g clip-path="url(#clip0_277_317)">
<path d="M31.7068 46.4315C31.3992 48.68 29.1861 50.4432 26.9731 49.8279C23.8371 48.9758 20.2041 47.6267 16.9379 47.3782L11.9202 46.9994C11.1142 46.9427 10.3566 46.5934 9.79012 46.0172L1.15126 37.1654C0.692512 36.6938 0.386234 36.0952 0.272246 35.4472C0.158258 34.7993 0.241833 34.132 0.512106 33.5322C0.512106 33.5322 5.83741 21.8639 6.05051 21.2604C6.23982 20.6568 6.9737 15.3551 7.39961 12.5149C7.51904 11.7608 7.89527 11.071 8.46467 10.5624L18.6656 1.42621C19.0016 1.12468 19.3958 0.895022 19.8239 0.751338C20.2519 0.607655 20.7048 0.552977 21.1547 0.590662C21.6047 0.628346 22.0422 0.757598 22.4404 0.97048C22.8385 1.18336 23.189 1.47538 23.4702 1.82862L32.0618 12.6687C32.5426 13.2877 32.801 14.0506 32.7955 14.8343C32.7955 16.8816 32.9731 21.1063 34.1208 23.8283C35.2599 26.2762 36.6733 28.5868 38.3338 30.7157C38.5349 30.9767 38.6536 31.2918 38.6747 31.6206C38.6957 31.9495 38.6183 32.2772 38.4522 32.5618C37.7067 33.828 36.2156 36.2658 34.1208 39.378C32.7946 41.518 31.9656 43.9283 31.6949 46.4313L31.7068 46.4315Z" fill="black" fill-opacity="0.3"/>
<path d="M31.7898 46.0527C31.4821 48.3131 29.2692 50.0764 27.0561 49.4729C23.932 48.6089 20.3106 47.2598 17.0327 47.0113L12.0269 46.6325C11.2189 46.5738 10.4608 46.22 9.89675 45.6386L1.2579 36.763C0.79458 36.2868 0.485728 35.6819 0.371721 35.0273C0.257714 34.3728 0.343859 33.6991 0.618891 33.0943C0.618891 33.0943 5.95594 21.3786 6.15714 20.7633C6.35835 20.1598 7.08034 14.8462 7.50624 11.9824C7.62307 11.224 7.99951 10.5297 8.5713 10.0179L18.7724 0.846541C19.1092 0.545697 19.504 0.316891 19.9324 0.174176C20.3609 0.0314607 20.8141 -0.02215 21.264 0.0166365C21.714 0.0554231 22.1512 0.185788 22.549 0.399724C22.9467 0.61366 23.2965 0.90665 23.5769 1.2607L32.1567 12.148C32.6357 12.768 32.8939 13.5302 32.8903 14.3137C32.8903 16.3729 33.068 20.6095 34.204 23.3431C35.3421 25.8026 36.7554 28.1251 38.4169 30.2661C38.6223 30.5271 38.7446 30.8437 38.7678 31.175C38.791 31.5063 38.7141 31.8369 38.5471 32.124C37.7895 33.4021 36.3105 35.8399 34.204 38.9759C32.8827 41.1258 32.058 43.5435 31.7898 46.0527Z" fill="#6C31E3"/>
<path d="M10.82 46.3012C14.8317 38.1713 14.7251 32.3371 13.0093 28.1951C11.4472 24.3609 8.52419 21.9467 6.22841 20.4438C6.18251 20.6644 6.111 20.8789 6.01531 21.0829L0.619074 33.0944C0.345523 33.7004 0.26129 34.3748 0.377403 35.0294C0.493515 35.684 0.804562 36.2882 1.26983 36.7631L9.89694 45.6386C10.1674 45.9071 10.479 46.1308 10.82 46.3012Z" fill="url(#paint0_radial_277_317)"/>
<path d="M21.7307 29.8047C22.8141 29.9111 23.8797 30.1536 24.9024 30.5266C28.1922 31.7573 31.1861 34.5266 33.6595 39.8638C33.837 39.5561 34.0144 39.2602 34.2039 38.9761C35.7154 36.7332 37.1637 34.4483 38.547 32.1242C38.7156 31.8383 38.7945 31.5083 38.7734 31.177C38.7523 30.8458 38.6322 30.5285 38.4286 30.2663C36.763 28.1259 35.3457 25.8034 34.2039 23.3433C33.0678 20.6215 32.9021 16.3731 32.8902 14.3139C32.8902 13.5329 32.6417 12.7636 32.1566 12.1483L23.5768 1.26091L23.4348 1.0835C24.062 3.15428 24.0266 4.81121 23.636 6.31407C23.281 7.71045 22.6184 8.97672 21.92 10.3141C21.6834 10.7638 21.4467 11.2252 21.2218 11.6986C20.1089 13.8241 19.4709 16.1661 19.3521 18.5624C19.2337 21.4263 19.8135 25.012 21.719 29.8049L21.7307 29.8047Z" fill="url(#paint1_radial_277_317)"/>
<path d="M21.7192 29.8046C19.8138 25.0118 19.2339 21.4261 19.3523 18.5621C19.4707 15.722 20.299 13.5919 21.222 11.6984L21.9321 10.3139C22.6186 8.97654 23.2695 7.71028 23.6362 6.31389C24.0717 4.58711 24.0019 2.77154 23.435 1.08332C22.2097 -0.263068 20.1278 -0.368791 18.7723 0.846571L8.57159 10.018C7.9998 10.5297 7.62335 11.224 7.50653 11.9824L6.26406 20.2189C6.26406 20.3017 6.24026 20.3728 6.22852 20.4556C8.5243 21.9467 11.4354 24.3609 13.0094 28.1833C13.3171 28.9407 13.5775 29.7336 13.7668 30.5975C16.3529 29.8805 19.042 29.6084 21.7193 29.7928L21.7192 29.8046Z" fill="url(#paint2_radial_277_317)"/>
<path d="M27.0678 49.4728C29.269 50.0762 31.482 48.313 31.7897 46.0407C32.0416 43.8855 32.6789 41.7931 33.6713 39.8634C31.1861 34.5261 28.1921 31.7569 24.9141 30.5262C21.4231 29.2246 17.6243 29.6624 13.7663 30.5973C14.6302 34.5145 14.1213 39.6386 10.8315 46.3011C11.1984 46.4904 11.6126 46.597 12.0267 46.6324L17.2219 47.0229C20.0383 47.2241 24.2395 48.6797 27.0678 49.4726" fill="url(#paint3_radial_277_317)"/>
<path d="M19.3758 18.3846C19.2457 21.2248 19.6006 24.4674 21.5059 29.2483L20.9142 29.1891C19.1982 24.207 18.8196 21.6508 18.9497 18.7751C19.0681 15.8995 20.003 13.6864 20.9261 11.793C21.1627 11.3197 21.7071 10.432 21.9438 9.98232C22.6301 8.64512 23.0917 7.94693 23.4823 6.72795C24.0503 5.02389 23.932 4.21922 23.8609 3.41455C24.2988 6.3138 22.6301 8.83443 21.3758 11.4025C20.2143 13.5595 19.5283 15.9403 19.364 18.3846H19.3758Z" fill="url(#paint4_radial_277_317)"/>
<path d="M13.5774 28.396C13.814 28.9168 14.0152 29.3429 14.1572 29.9936L13.6483 30.112C13.4471 29.3546 13.2934 28.8104 12.9974 28.1595C11.2697 24.1003 8.50045 22.0057 6.25195 20.4673C8.97394 21.9348 11.7786 24.2423 13.5773 28.396" fill="url(#paint5_radial_277_317)"/>
<path d="M14.1806 30.5148C15.1273 34.9526 14.0623 40.5974 10.9263 46.0885C13.5535 40.6448 14.8315 35.4258 13.7665 30.5858L14.1806 30.5029V30.5148Z" fill="url(#paint6_radial_277_317)"/>
<path d="M25.0208 30.1007C30.1686 32.0296 32.1568 36.2543 33.6361 39.7927C31.8017 36.1005 29.2574 32.0177 24.8315 30.5029C21.4705 29.3433 18.6305 29.4852 13.7666 30.5858L13.6602 30.1124C18.8198 28.929 21.518 28.7871 25.0208 30.1124V30.1007Z" fill="url(#paint7_radial_277_317)"/>
</g>
<defs>
<radialGradient id="paint0_radial_277_317" cx="0" cy="0" r="1" gradientUnits="userSpaceOnUse" gradientTransform="translate(4292.61 40.9801) rotate(-104) scale(2261.79 4235.26)">
<stop stop-color="white" stop-opacity="0.4"/>
<stop offset="1" stop-opacity="0.1"/>
</radialGradient>
<radialGradient id="paint1_radial_277_317" cx="0" cy="0" r="1" gradientUnits="userSpaceOnUse" gradientTransform="translate(5020.88 1054.45) rotate(-82) scale(3700.5 7382.25)">
<stop stop-color="white" stop-opacity="0.6"/>
<stop offset="1" stop-color="white" stop-opacity="0.1"/>
</radialGradient>
<radialGradient id="paint2_radial_277_317" cx="0" cy="0" r="1" gradientUnits="userSpaceOnUse" gradientTransform="translate(4273.45 1699.17) rotate(-77) scale(3161.43 5468.2)">
<stop stop-color="white" stop-opacity="0.8"/>
<stop offset="1" stop-color="white" stop-opacity="0.4"/>
</radialGradient>
<radialGradient id="paint3_radial_277_317" cx="0" cy="0" r="1" gradientUnits="userSpaceOnUse" gradientTransform="translate(1651.02 3.3532e+06) scale(2103.22 1830.66)">
<stop stop-color="white" stop-opacity="0.3"/>
<stop offset="1" stop-opacity="0.3"/>
</radialGradient>
<radialGradient id="paint4_radial_277_317" cx="0" cy="0" r="1" gradientUnits="userSpaceOnUse" gradientTransform="translate(-1190.1 551.77) rotate(102) scale(1645.62 8492.3)">
<stop stop-color="white" stop-opacity="0"/>
<stop offset="1" stop-color="white" stop-opacity="0.2"/>
</radialGradient>
<radialGradient id="paint5_radial_277_317" cx="0" cy="0" r="1" gradientUnits="userSpaceOnUse" gradientTransform="translate(-48.261 -152.878) rotate(45) scale(1213.4 1480.39)">
<stop stop-color="white" stop-opacity="0.2"/>
<stop offset="1" stop-color="white" stop-opacity="0.4"/>
</radialGradient>
<radialGradient id="paint6_radial_277_317" cx="0" cy="0" r="1" gradientUnits="userSpaceOnUse" gradientTransform="translate(844.712 -234.355) rotate(80) scale(1416.33 6152.72)">
<stop stop-color="white" stop-opacity="0.1"/>
<stop offset="1" stop-color="white" stop-opacity="0.3"/>
</radialGradient>
<radialGradient id="paint7_radial_277_317" cx="0" cy="0" r="1" gradientUnits="userSpaceOnUse" gradientTransform="translate(1998.23 -5.83987e+06) scale(4071.57 2164.98)">
<stop stop-color="white" stop-opacity="0.2"/>
<stop offset="0.5" stop-color="white" stop-opacity="0.2"/>
<stop offset="1" stop-color="white" stop-opacity="0.3"/>
</radialGradient>
<clipPath id="clip0_277_317">
<rect width="38.5542" height="50" fill="white" transform="translate(0.222656)"/>
</clipPath>
</defs>
</svg>
