<svg width="51" height="50" viewBox="0 0 51 50" fill="none" xmlns="http://www.w3.org/2000/svg">
<path d="M9.44792 15.0418C9.22431 15.1851 9.04033 15.3823 8.91291 15.6153C8.78549 15.8483 8.71872 16.1096 8.71875 16.3751V36.521C8.72322 37.1241 8.89759 37.7137 9.22186 38.2222C9.54613 38.7307 10.0072 39.1375 10.5521 39.396L22.9688 45.271C23.6842 45.6001 24.4624 45.7705 25.25 45.7705C26.0376 45.7705 26.8158 45.6001 27.5313 45.271L39.9479 39.396C40.4928 39.1375 40.9539 38.7307 41.2781 38.2222C41.6024 37.7137 41.7768 37.1241 41.7813 36.521V16.3751C41.7831 16.1069 41.7148 15.8427 41.5833 15.6089C41.4518 15.375 41.2615 15.1796 41.0313 15.0418L36.3854 12.646V10.5626C36.3828 10.1797 36.2747 9.80484 36.0729 9.47931L33.3021 4.97931C33.1625 4.75088 32.9666 4.56213 32.7331 4.43118C32.4997 4.30022 32.2364 4.23145 31.9688 4.23145C31.7011 4.23145 31.4379 4.30022 31.2044 4.43118C30.9709 4.56213 30.775 4.75088 30.6354 4.97931L27.9583 9.37514L26.5833 7.14598C26.4401 6.92237 26.2429 6.73839 26.0099 6.61097C25.7769 6.48355 25.5156 6.41678 25.25 6.41681C24.9836 6.42455 24.7231 6.49684 24.4909 6.62748C24.2587 6.75812 24.0616 6.9432 23.9167 7.16681L22.5625 9.37514L19.8333 4.97931C19.6938 4.75088 19.4979 4.56213 19.2644 4.43118C19.0309 4.30022 18.7677 4.23145 18.5 4.23145C18.2323 4.23145 17.9691 4.30022 17.7356 4.43118C17.5021 4.56213 17.3062 4.75088 17.1667 4.97931L14.4271 9.47931C14.2253 9.80484 14.1172 10.1797 14.1146 10.5626V12.646L9.44792 15.0418ZM36.3854 15.021L37.8438 15.7501L36.3854 16.4376V15.021ZM31.3021 7.87514H32.6354L33.6771 9.56264H30.2604L31.3021 7.87514ZM34.3021 11.646V17.4168L33.0313 18.021V11.646H34.3021ZM29.6563 11.646H30.9479V19.0001L29.6563 19.6251V11.646ZM17.8438 7.87514H19.1771L20.2188 9.56264H16.8021L17.8438 7.87514ZM20.8438 11.646V19.6043L19.5729 19.0001V11.646H20.8438ZM16.1979 11.646H17.4896V18.021L16.1979 17.4168V11.646ZM14.1146 15.021V16.4376L12.6562 15.7501L14.1146 15.021ZM11.4271 37.5001C11.2407 37.4131 11.0829 37.2748 10.9722 37.1014C10.8616 36.928 10.8025 36.7267 10.8021 36.521V17.1668L24.1979 23.5001V43.4793L11.4271 37.5001ZM24.1979 21.1876L22.9271 20.5835V13.8335H24.1979V21.1876ZM23.5313 11.7501L24.5938 10.0418H25.8854L26.9479 11.7501H23.5313ZM27.5729 13.8335V20.6043L26.2813 21.2085V13.8335H27.5729ZM26.2917 43.5001V23.521L39.7083 17.1668V36.521C39.7087 36.7296 39.6476 36.9336 39.5328 37.1078C39.4179 37.2819 39.2544 37.4183 39.0625 37.5001L26.2917 43.5001Z" fill="black"/>
</svg>
