<svg width="51" height="50" viewBox="0 0 51 50" fill="none" xmlns="http://www.w3.org/2000/svg">
<g clip-path="url(#clip0_277_174)">
<path d="M10.7727 19.7081H7.98731L6.46647 27.5227H8.93939C10.5797 27.5227 11.8019 27.2137 12.6061 26.5956C13.4074 25.9776 13.9484 24.9456 14.229 23.4998C14.4984 22.1123 14.3762 21.1331 13.8623 20.5623C13.3484 19.9915 12.3186 19.7067 10.7727 19.7081ZM15.8769 28.3602C15.1081 29.0977 14.1811 29.6519 13.1727 29.9852C12.1797 30.3074 10.9158 30.4692 9.38106 30.4706H5.89147L4.92689 35.4331H0.862305L4.49147 16.7623H12.3123C14.6651 16.7623 16.3811 17.3804 17.4602 18.6165C18.5408 19.8498 18.8658 21.5734 18.4352 23.7873C18.2709 24.6634 17.967 25.5075 17.5352 26.2873C17.0974 27.0623 16.5361 27.7621 15.8769 28.3602ZM27.7561 30.4706L29.3602 22.2102C29.5436 21.2699 29.4762 20.6297 29.1581 20.2894C28.8429 19.9463 28.1672 19.7748 27.1311 19.7748H23.9081L21.8311 30.4748H17.7915L21.4206 11.7998H25.4561L24.4915 16.7644H28.0852C30.3491 16.7644 31.9095 17.1588 32.7665 17.9477C33.6234 18.7366 33.8824 20.0144 33.5436 21.7811L31.8561 30.4706H27.7561ZM50.179 23.7873C50.0165 24.6623 49.7123 25.5061 49.279 26.2873C48.8411 27.0623 48.282 27.7621 47.6227 28.3602C46.8519 29.0956 45.9269 29.6519 44.9165 29.9852C43.9234 30.3074 42.6581 30.4692 41.1206 30.4706H37.6394L36.6727 35.4352H32.604L36.2352 16.7644H44.0519C46.4047 16.7644 48.1206 17.3824 49.1998 18.6186C50.2804 19.8491 50.6061 21.5713 50.1769 23.7852M42.5186 19.7081H39.7352L38.2123 27.5227H40.6852C42.3283 27.5227 43.5505 27.2137 44.3519 26.5956C45.1533 25.9776 45.695 24.9456 45.9769 23.4998C46.2463 22.1123 46.1234 21.1331 45.6081 20.5623C45.0929 19.9915 44.063 19.7067 42.5186 19.7081Z" fill="#787CB4"/>
</g>
<defs>
<clipPath id="clip0_277_174">
<rect width="50" height="50" fill="white" transform="translate(0.5)"/>
</clipPath>
</defs>
</svg>
