<svg width="50" height="50" viewBox="0 0 50 50" fill="none" xmlns="http://www.w3.org/2000/svg">
<path d="M24.9998 21.0623C27.1457 21.0623 28.8957 22.8123 28.8957 24.9998C28.8957 27.0832 27.1457 28.854 24.9998 28.854C22.854 28.854 21.104 27.0832 21.104 24.9998C21.104 22.8123 22.854 21.0623 24.9998 21.0623ZM15.354 41.6665C16.6665 42.4582 19.5415 41.2498 22.854 38.1248C21.7707 36.8957 20.7082 35.5623 19.7082 34.1665C18.0295 34.0047 16.3605 33.7543 14.7082 33.4165C13.6457 37.8748 14.0415 40.9373 15.354 41.6665ZM16.8332 29.7082L16.229 28.6457C15.9998 29.2498 15.7707 29.854 15.6248 30.4373C16.1873 30.5623 16.8123 30.6665 17.4582 30.7707L16.8332 29.7082ZM30.4582 28.1248L32.1457 24.9998L30.4582 21.8748C29.8332 20.7707 29.1665 19.7915 28.5623 18.8123C27.4373 18.7498 26.2498 18.7498 24.9998 18.7498C23.7498 18.7498 22.5623 18.7498 21.4373 18.8123C20.8332 19.7915 20.1665 20.7707 19.5415 21.8748L17.854 24.9998L19.5415 28.1248C20.1665 29.229 20.8332 30.2082 21.4373 31.1873C22.5623 31.2498 23.7498 31.2498 24.9998 31.2498C26.2498 31.2498 27.4373 31.2498 28.5623 31.1873C29.1665 30.2082 29.8332 29.229 30.4582 28.1248ZM24.9998 14.1248C24.604 14.5832 24.1873 15.0623 23.7707 15.6248H26.229C25.8123 15.0623 25.3957 14.5832 24.9998 14.1248ZM24.9998 35.8748C25.3957 35.4165 25.8123 34.9373 26.229 34.3748H23.7707C24.1873 34.9373 24.604 35.4165 24.9998 35.8748ZM34.6248 8.33317C33.3332 7.54151 30.4582 8.74984 27.1457 11.8748C28.229 13.104 29.2915 14.4373 30.2915 15.8332C31.9998 15.9998 33.6873 16.2498 35.2915 16.5832C36.354 12.1248 35.9582 9.06234 34.6248 8.33317ZM33.1665 20.2915L33.7707 21.354C33.9998 20.7498 34.229 20.1457 34.3748 19.5623C33.8123 19.4373 33.1873 19.3332 32.5415 19.229L33.1665 20.2915ZM36.1873 5.60401C39.2498 7.35401 39.5832 11.9582 38.2915 17.3332C43.5832 18.8957 47.3957 21.479 47.3957 24.9998C47.3957 28.5207 43.5832 31.104 38.2915 32.6665C39.5832 38.0415 39.2498 42.6457 36.1873 44.3957C33.1457 46.1457 28.9998 44.1457 24.9998 40.3332C20.9998 44.1457 16.854 46.1457 13.7915 44.3957C10.7498 42.6457 10.4165 38.0415 11.7082 32.6665C6.4165 31.104 2.604 28.5207 2.604 24.9998C2.604 21.479 6.4165 18.8957 11.7082 17.3332C10.4165 11.9582 10.7498 7.35401 13.7915 5.60401C16.854 3.85401 20.9998 5.85401 24.9998 9.66651C28.9998 5.85401 33.1457 3.85401 36.1873 5.60401ZM35.5832 24.9998C36.2915 26.5623 36.9165 28.1248 37.4373 29.7082C41.8123 28.3957 44.2707 26.5207 44.2707 24.9998C44.2707 23.479 41.8123 21.604 37.4373 20.2915C36.9165 21.8748 36.2915 23.4373 35.5832 24.9998ZM14.4165 24.9998C13.7082 23.4373 13.0832 21.8748 12.5623 20.2915C8.18734 21.604 5.729 23.479 5.729 24.9998C5.729 26.5207 8.18734 28.3957 12.5623 29.7082C13.0832 28.1248 13.7082 26.5623 14.4165 24.9998ZM33.1665 29.7082L32.5415 30.7707C33.1873 30.6665 33.8123 30.5623 34.3748 30.4373C34.229 29.854 33.9998 29.2498 33.7707 28.6457L33.1665 29.7082ZM27.1457 38.1248C30.4582 41.2498 33.3332 42.4582 34.6248 41.6665C35.9582 40.9373 36.354 37.8748 35.2915 33.4165C33.6873 33.7498 31.9998 33.9998 30.2915 34.1665C29.2915 35.5623 28.229 36.8957 27.1457 38.1248ZM16.8332 20.2915L17.4582 19.229C16.8123 19.3332 16.1873 19.4373 15.6248 19.5623C15.7707 20.1457 15.9998 20.7498 16.229 21.354L16.8332 20.2915ZM22.854 11.8748C19.5415 8.74984 16.6665 7.54151 15.354 8.33317C14.0415 9.06234 13.6457 12.1248 14.7082 16.5832C16.3605 16.2454 18.0295 15.995 19.7082 15.8332C20.7082 14.4373 21.7707 13.104 22.854 11.8748Z" fill="#66DBFB"/>
</svg>
