<svg width="51" height="50" viewBox="0 0 51 50" fill="none" xmlns="http://www.w3.org/2000/svg">
<g clip-path="url(#clip0_277_310)">
<path d="M50.1035 42.1875L42.7549 49.5361L40.5576 47.3389L44.1465 43.75H34.7959C36.1468 42.8385 37.3838 41.7969 38.5068 40.625H44.1465L40.5576 37.0361L42.7549 34.8389L50.1035 42.1875ZM40.875 25C40.875 26.7253 40.6553 28.3854 40.2158 29.9805C39.7764 31.5755 39.1416 33.0648 38.3115 34.4482C37.4814 35.8317 36.5049 37.1012 35.3818 38.2568C34.2588 39.4124 32.9974 40.389 31.5977 41.1865C30.1979 41.9841 28.7005 42.6107 27.1055 43.0664C25.5104 43.5221 23.8503 43.75 22.125 43.75H0.25V40.625H22.125C23.5573 40.625 24.9408 40.4378 26.2754 40.0635C27.61 39.6891 28.8551 39.1683 30.0107 38.501C31.1663 37.8337 32.2161 37.0199 33.1602 36.0596C34.1042 35.0993 34.918 34.0413 35.6016 32.8857C36.2852 31.7301 36.8141 30.485 37.1885 29.1504C37.5628 27.8158 37.75 26.4323 37.75 25C37.75 23.5677 37.5628 22.1842 37.1885 20.8496C36.8141 19.515 36.2933 18.2699 35.626 17.1143C34.9587 15.9587 34.1449 14.9089 33.1846 13.9648C32.2243 13.0208 31.1663 12.207 30.0107 11.5234C28.8551 10.8398 27.61 10.3109 26.2754 9.93652C24.9408 9.56217 23.5573 9.375 22.125 9.375H21.7832C21.6693 9.375 21.5472 9.39128 21.417 9.42383H21.2705L24.7861 12.9639L22.5889 15.1611L15.2402 7.8125L22.5889 0.463867L24.7861 2.66113L21.1729 6.27441C21.3356 6.25814 21.4902 6.25 21.6367 6.25C21.7832 6.25 21.946 6.25 22.125 6.25C23.8503 6.25 25.5104 6.46973 27.1055 6.90918C28.7005 7.34863 30.1898 7.9834 31.5732 8.81348C32.9567 9.64355 34.2262 10.6201 35.3818 11.7432C36.5374 12.8662 37.514 14.1276 38.3115 15.5273C39.1091 16.9271 39.7357 18.4245 40.1914 20.0195C40.6471 21.6146 40.875 23.2747 40.875 25ZM8.18457 37.5C6.63835 35.7747 5.4502 33.846 4.62012 31.7139C3.79004 29.5817 3.375 27.3438 3.375 25C3.375 23.4701 3.55404 21.9727 3.91211 20.5078C4.27018 19.043 4.80729 17.6432 5.52344 16.3086C6.23958 14.974 7.08594 13.7451 8.0625 12.6221C9.03906 11.499 10.1784 10.4899 11.4805 9.59473L13.751 11.8652C12.6279 12.5814 11.6188 13.4196 10.7236 14.3799C9.82845 15.3402 9.07161 16.3818 8.45312 17.5049C7.83464 18.6279 7.35449 19.8242 7.0127 21.0938C6.6709 22.3633 6.5 23.6654 6.5 25C6.5 26.237 6.64648 27.4414 6.93945 28.6133C7.23242 29.7852 7.64746 30.9082 8.18457 31.9824C8.72168 33.0566 9.389 34.0576 10.1865 34.9854C10.984 35.9131 11.8711 36.7513 12.8477 37.5H8.18457Z" fill="#202020"/>
</g>
<defs>
<clipPath id="clip0_277_310">
<rect width="50" height="50" fill="white" transform="translate(0.25)"/>
</clipPath>
</defs>
</svg>
