<svg width="50" height="50" viewBox="0 0 50 50" fill="none" xmlns="http://www.w3.org/2000/svg">
<path d="M24.9998 4.1665C13.5207 4.1665 4.1665 13.5207 4.1665 24.9998C4.1665 36.479 13.5207 45.8332 24.9998 45.8332C36.479 45.8332 45.8332 36.479 45.8332 24.9998C45.8332 13.5207 36.479 4.1665 24.9998 4.1665ZM6.27067 24.9998C6.27067 22.2915 6.854 19.7082 7.89567 17.3748L16.8332 41.854C10.5832 38.8123 6.27067 32.4165 6.27067 24.9998ZM24.9998 43.729C23.1665 43.729 21.3957 43.4582 19.7082 42.9582L25.3332 26.6248L31.0832 42.3957C31.1248 42.479 31.1665 42.5832 31.2082 42.6457C29.2707 43.354 27.1873 43.729 24.9998 43.729ZM27.5832 16.2082C28.7082 16.1457 29.729 16.0207 29.729 16.0207C30.729 15.8957 30.6248 14.4165 29.604 14.479C29.604 14.479 26.5623 14.7082 24.604 14.7082C22.7707 14.7082 19.6665 14.479 19.6665 14.479C18.6665 14.4373 18.5415 15.979 19.5623 16.0415C19.5623 16.0415 20.5207 16.1665 21.5207 16.229L24.4373 24.229L20.3332 36.5207L13.5207 16.2082C14.6457 16.1665 15.6665 16.0415 15.6665 16.0415C16.6665 15.9165 16.5623 14.4373 15.5415 14.4998C15.5415 14.4998 12.4998 14.729 10.5415 14.729C10.1873 14.729 9.77067 14.729 9.33317 14.7082C12.7082 9.62484 18.4582 6.27067 24.9998 6.27067C29.8748 6.27067 34.3123 8.12484 37.6457 11.1873C37.5623 11.1873 37.479 11.1665 37.3957 11.1665C35.5623 11.1665 34.2498 12.7707 34.2498 14.4998C34.2498 16.0415 35.1457 17.354 36.0832 18.8957C36.7915 20.1457 37.6248 21.7498 37.6248 24.0623C37.6248 25.6665 36.9998 27.5207 36.2082 30.1248L34.3332 36.3748L27.5832 16.2082ZM41.4373 16.0207C43.7763 20.3035 44.3513 25.33 43.04 30.0304C41.7287 34.7308 38.6347 38.7338 34.4165 41.1873L40.1457 24.6457C41.2082 21.979 41.5623 19.8332 41.5623 17.9373C41.5623 17.2498 41.5207 16.604 41.4373 16.0207Z" fill="#21759B"/>
</svg>
